<?xml version="1.0" encoding="UTF-8" standalone="no"?>
<!DOCTYPE svg PUBLIC "-//W3C//DTD SVG 1.1//EN" "http://www.w3.org/Graphics/SVG/1.1/DTD/svg11.dtd">
<svg width="100%" height="100%" viewBox="0 0 2048 2048" version="1.1" xmlns="http://www.w3.org/2000/svg" xmlns:xlink="http://www.w3.org/1999/xlink" xml:space="preserve" xmlns:serif="http://www.serif.com/" style="fill-rule:evenodd;clip-rule:evenodd;stroke-linejoin:round;stroke-miterlimit:2;">
    <g id="Logo">
        <g id="X">
            <path d="M1273.67,1031.84l-21.632,95.151c-4.166,18.326 -2.078,42.52 6.265,72.584c8.342,30.064 21.284,62.656 38.825,97.777c17.541,35.12 37.705,70.836 60.494,107.15c22.789,36.313 46.138,70.159 70.048,101.539c23.911,31.379 47.878,57.953 71.904,79.723c24.025,21.769 45.061,35.446 63.108,41.032l-64.414,283.338l-63.934,-10.087c-78.395,-19.305 -145.371,-47.874 -200.928,-85.706c-55.557,-37.833 -98.848,-79.549 -129.874,-125.147c-6.269,-8.838 -14.865,-24.134 -25.786,-45.889c-10.921,-21.756 -23.665,-47.631 -38.231,-77.628c-14.567,-29.996 -29.724,-63.463 -45.473,-100.399c-15.748,-36.937 -31.088,-74.151 -46.02,-111.643c-29.674,27.351 -59.595,54.276 -89.764,80.774c-30.17,26.497 -57.978,50.196 -83.425,71.096c-25.448,20.899 -47.798,38.797 -67.051,53.692c-19.253,14.896 -33.617,24.973 -43.091,30.232c-47.69,27.703 -104.761,46.602 -171.214,56.697c-66.453,10.095 -139.197,6.9 -218.234,-9.585l-62.011,-18.545l64.414,-283.339c18.687,2.766 43.569,-0.472 74.645,-9.715c31.075,-9.243 64.177,-22.843 99.303,-40.801c35.127,-17.958 70.814,-38.383 107.062,-61.275c36.249,-22.892 69.873,-46.38 100.873,-70.465c31.001,-24.085 56.761,-47.879 77.281,-71.381c20.52,-23.503 32.864,-44.416 37.03,-62.742l21.631,-95.151c-1.202,-43.265 -12.914,-91.886 -35.137,-145.86c-22.223,-53.975 -49.023,-106.025 -80.399,-156.15c-31.376,-50.126 -64.931,-93.704 -100.663,-130.737c-35.733,-37.032 -67.054,-60.089 -93.964,-69.172l64.414,-283.338l63.934,10.087c78.395,19.305 145.371,47.874 200.928,85.706c55.557,37.833 98.848,79.549 129.874,125.147c6.269,8.838 15.113,24.561 26.529,47.17c11.417,22.609 24.001,49.19 37.751,79.742c13.751,30.553 28.172,64.222 43.264,101.01c15.092,36.787 29.944,74.631 44.556,113.533c29.994,-28.761 60.076,-56.39 90.245,-82.888c30.169,-26.498 58.386,-50.474 84.649,-71.93c26.264,-21.455 49.102,-39.983 68.516,-55.583c19.413,-15.601 33.857,-26.03 43.331,-31.289c47.69,-27.703 104.761,-46.602 171.214,-56.697c66.453,-10.096 139.197,-6.9 218.234,9.585l62.011,18.545l-64.414,283.339c-28.191,-3.444 -66.403,3.806 -114.633,21.75c-48.231,17.943 -97.328,42.732 -147.292,74.366c-49.963,31.634 -96.632,66.982 -140.005,106.044c-43.374,39.062 -74.955,77.84 -94.744,116.333Z" style="fill:#555800;fill-rule:nonzero;"/>
            <path d="M1261.57,948.227l11.294,96.923c2.175,18.667 12.203,40.785 30.082,66.354c17.879,25.569 40.936,51.99 69.173,79.263c28.236,27.273 59.145,54.234 92.727,80.885c33.582,26.65 66.871,50.787 99.868,72.411c32.996,21.625 64.446,38.699 94.35,51.224c29.904,12.525 54.295,18.415 73.171,17.671l33.631,288.615l-63.643,11.782c-80.349,7.908 -153.017,3.277 -218.002,-13.892c-64.985,-17.17 -119.699,-42.085 -164.14,-74.747c-8.854,-6.245 -22.054,-17.805 -39.597,-34.681c-17.543,-16.876 -38.178,-37.03 -61.903,-60.463c-23.725,-23.432 -49.164,-49.94 -76.315,-79.522c-27.151,-29.583 -54.009,-59.563 -80.576,-89.941c-18.87,35.672 -38.116,71.025 -57.737,106.058c-19.622,35.033 -37.95,66.64 -54.983,94.822c-17.034,28.182 -32.147,52.502 -45.34,72.959c-13.193,20.458 -23.381,34.743 -30.562,42.857c-35.741,42.005 -83.259,78.833 -142.556,110.485c-59.296,31.651 -128.952,52.866 -208.966,63.645l-64.648,3.167l-33.631,-288.615c18.542,-3.616 40.924,-14.956 67.147,-34.021c26.224,-19.066 52.905,-42.914 80.045,-71.546c27.14,-28.632 53.988,-59.777 80.542,-93.434c26.555,-33.658 50.436,-67.004 71.645,-100.038c21.209,-33.035 37.574,-64.05 49.095,-93.045c11.521,-28.995 16.194,-52.826 14.019,-71.492l-11.294,-96.923c-15.543,-40.396 -42.78,-82.339 -81.711,-125.83c-38.931,-43.492 -81.536,-83.645 -127.815,-120.458c-46.28,-36.814 -92.433,-66.729 -138.459,-89.746c-46.026,-23.017 -83.239,-34.326 -111.637,-33.928l-33.631,-288.615l63.643,-11.782c80.349,-7.908 153.017,-3.277 218.002,13.892c64.985,17.17 119.699,42.085 164.14,74.747c8.855,6.245 22.43,18.125 40.725,35.641c18.295,17.516 39.013,38.388 62.154,62.617c23.141,24.228 47.952,51.172 74.435,80.833c26.483,29.66 53.092,60.397 79.825,92.212c18.703,-37.109 37.865,-73.18 57.487,-108.213c19.621,-35.032 38.241,-67.038 55.859,-96.015c17.619,-28.978 32.983,-54.055 46.092,-75.23c13.109,-21.176 23.255,-35.82 30.436,-43.934c35.741,-42.005 83.259,-78.833 142.556,-110.484c59.296,-31.652 128.952,-52.867 208.966,-63.646l64.648,-3.167l33.631,288.615c-27.729,6.142 -61.344,25.705 -100.845,58.688c-39.501,32.983 -77.539,72.708 -114.114,119.177c-36.575,46.468 -68.806,95.341 -96.694,146.619c-27.887,51.277 -44.75,98.359 -50.589,141.246Z" style="fill:#807300;fill-rule:nonzero;"/>
            <path d="M1272.39,999.175l-9.029,97.16c-1.739,18.713 3.488,42.428 15.683,71.146c12.194,28.718 29.278,59.343 51.252,91.874c21.974,32.531 46.627,65.311 73.96,98.339c27.332,33.029 54.899,63.539 82.699,91.53c27.801,27.991 55.032,51.21 81.693,69.658c26.66,18.448 49.301,29.264 67.922,32.446l-26.888,289.321l-64.704,-1.657c-80.244,-8.91 -150.375,-28.494 -210.394,-58.753c-60.019,-30.26 -108.384,-65.969 -145.095,-107.129c-7.369,-7.944 -17.886,-21.988 -31.553,-42.132c-13.667,-20.144 -29.678,-44.136 -48.035,-71.975c-18.356,-27.839 -37.751,-59.041 -58.185,-93.607c-20.434,-34.565 -40.499,-69.459 -60.196,-104.682c-25.85,30.99 -52.002,61.589 -78.456,91.796c-26.453,30.208 -50.931,57.333 -73.434,81.375c-22.502,24.042 -42.326,44.703 -59.471,61.984c-17.144,17.28 -30.07,29.146 -38.777,35.596c-43.667,33.689 -97.784,59.874 -162.351,78.555c-64.567,18.681 -137.106,25.006 -217.618,18.975l-63.901,-10.294l26.888,-289.321c18.889,0.303 43.135,-6.154 72.739,-19.373c29.604,-13.219 60.647,-31.023 93.13,-53.411c32.482,-22.389 65.199,-47.296 98.15,-74.722c32.951,-27.427 63.223,-55.102 90.815,-83.026c27.593,-27.925 50.028,-54.877 67.306,-80.856c17.277,-25.979 26.786,-48.325 28.525,-67.037l9.029,-97.16c-6.837,-42.739 -24.794,-89.415 -53.87,-140.028c-29.077,-50.613 -62.439,-98.721 -100.089,-144.323c-37.649,-45.603 -76.603,-84.43 -116.863,-116.483c-40.26,-32.052 -74.322,-50.825 -102.187,-56.318l26.889,-289.322l64.704,1.658c80.244,8.91 150.375,28.494 210.394,58.753c60.019,30.259 108.384,65.969 145.095,107.129c7.368,7.944 18.188,22.379 32.457,43.305c14.27,20.926 30.215,45.637 47.834,74.134c17.62,28.496 36.312,59.996 56.076,94.499c19.764,34.504 39.427,70.086 58.99,106.749c25.985,-32.43 52.203,-63.748 78.657,-93.956c26.453,-30.208 51.3,-57.662 74.539,-82.361c23.239,-24.699 43.464,-46.049 60.676,-64.049c17.212,-18.001 30.171,-30.226 38.878,-36.676c43.667,-33.69 97.784,-59.875 162.351,-78.555c64.567,-18.681 137.106,-25.006 217.618,-18.975l63.901,10.294l-26.888,289.321c-28.4,0.264 -65.339,12.439 -110.815,36.523c-45.477,24.085 -90.92,55.069 -136.328,92.952c-45.408,37.883 -87.064,79.019 -124.97,123.407c-37.905,44.388 -64.156,86.955 -78.753,127.702Z" style="fill:#75a100;fill-rule:nonzero;"/>
            <path d="M1261.94,948.485l11.186,96.936c2.154,18.669 12.157,40.798 30.008,66.387c17.85,25.589 40.879,52.035 69.085,79.339c28.206,27.305 59.085,54.301 92.637,80.988c33.553,26.687 66.815,50.862 99.787,72.523c32.972,21.661 64.403,38.77 94.294,51.328c29.89,12.558 54.274,18.476 73.151,17.752l33.31,288.653l-63.656,11.711c-80.358,7.818 -153.02,3.107 -217.986,-14.135c-64.967,-17.241 -119.652,-42.217 -164.057,-74.928c-8.848,-6.255 -22.034,-17.83 -39.559,-34.726c-17.524,-16.895 -38.136,-37.072 -61.835,-60.531c-23.7,-23.459 -49.108,-49.994 -76.227,-79.607c-27.118,-29.613 -53.943,-59.623 -80.476,-90.031c-18.909,35.652 -38.194,70.983 -57.855,105.994c-19.661,35.011 -38.023,66.598 -55.088,94.761c-17.065,28.163 -32.206,52.466 -45.422,72.909c-13.215,20.443 -23.418,34.717 -30.609,42.823c-35.787,41.965 -83.347,78.74 -142.678,110.326c-59.332,31.585 -129.011,52.723 -209.037,63.413l-64.651,3.095l-33.311,-288.652c18.546,-3.595 40.941,-14.911 67.185,-33.947c26.245,-19.036 52.953,-42.855 80.125,-71.456c27.171,-28.602 54.053,-59.717 80.645,-93.345c26.592,-33.628 50.511,-66.947 71.756,-99.959c21.246,-33.011 37.646,-64.007 49.199,-92.989c11.553,-28.983 16.252,-52.808 14.098,-71.477l-11.187,-96.936c-15.498,-40.412 -42.688,-82.386 -81.57,-125.921c-38.883,-43.534 -81.443,-83.734 -127.682,-120.599c-46.238,-36.865 -92.358,-66.832 -138.359,-89.9c-46.001,-23.068 -83.2,-34.418 -111.599,-34.052l-33.31,-288.652l63.656,-11.712c80.358,-7.818 153.02,-3.106 217.986,14.135c64.966,17.242 119.652,42.218 164.057,74.929c8.848,6.255 22.409,18.151 40.685,35.687c18.276,17.536 38.971,38.431 62.085,62.685c23.113,24.254 47.895,51.226 74.345,80.916c26.45,29.69 53.024,60.456 79.723,92.3c18.744,-37.088 37.946,-73.137 57.606,-108.148c19.661,-35.011 38.316,-66.996 55.967,-95.954c17.65,-28.958 33.042,-54.017 46.175,-75.178c13.133,-21.161 23.294,-35.794 30.485,-43.9c35.787,-41.965 83.347,-78.741 142.678,-110.326c59.332,-31.585 129.011,-52.723 209.037,-63.414l64.651,-3.095l33.311,288.653c-27.736,6.111 -61.373,25.636 -100.91,58.575c-39.538,32.939 -77.62,72.623 -114.247,119.05c-36.626,46.428 -68.912,95.265 -96.856,146.512c-27.945,51.246 -44.86,98.31 -50.746,141.19Z" style="fill:#8ca700;fill-rule:nonzero;"/>
            <path d="M1268.93,976.278l0,97.579c0,18.793 7.4,41.923 22.2,69.389c14.799,27.467 34.644,56.379 59.534,86.737c24.89,30.358 52.471,60.716 82.742,91.074c30.272,30.358 60.543,58.186 90.815,83.484c30.272,25.298 59.534,45.898 87.788,61.8c28.253,15.901 51.798,24.575 70.634,26.021l-0,290.568l-64.58,4.337c-80.724,-1.446 -152.367,-14.457 -214.928,-39.032c-62.562,-24.575 -114.024,-55.656 -154.386,-93.242c-8.072,-7.228 -19.844,-20.239 -35.317,-39.032c-15.472,-18.792 -33.635,-41.199 -54.488,-67.22c-20.854,-26.021 -43.053,-55.295 -66.598,-87.821c-23.545,-32.527 -46.753,-65.414 -69.625,-98.663c-22.872,33.249 -46.08,66.136 -69.625,98.663c-23.544,32.526 -45.407,61.8 -65.588,87.821c-20.181,26.021 -38.008,48.428 -53.48,67.22c-15.472,18.793 -27.244,31.804 -35.317,39.032c-40.362,37.586 -91.824,68.667 -154.385,93.242c-62.561,24.575 -134.204,37.586 -214.929,39.032l-64.579,-4.337l-0,-290.568c18.836,-1.446 42.38,-10.12 70.634,-26.021c28.253,-15.902 57.516,-36.502 87.787,-61.8c30.272,-25.298 60.544,-53.126 90.815,-83.484c30.272,-30.358 57.853,-60.716 82.743,-91.074c24.89,-30.358 44.734,-59.27 59.534,-86.737c14.799,-27.466 22.199,-50.596 22.199,-69.389l0,-97.579c-10.763,-41.923 -32.962,-86.737 -66.597,-134.442c-33.636,-47.705 -71.307,-92.519 -113.015,-134.442c-41.707,-41.922 -84.087,-76.978 -127.14,-105.168c-43.053,-28.189 -78.707,-43.73 -106.96,-46.621l-0,-290.568l64.579,-4.337c80.725,1.446 152.368,14.456 214.929,39.032c62.561,24.575 114.023,55.656 154.385,93.242c8.073,7.228 20.181,20.6 36.326,40.116c16.145,19.515 34.308,42.645 54.489,69.389c20.181,26.744 41.708,56.379 64.58,88.905c22.871,32.526 45.743,66.137 68.615,100.831c22.872,-34.694 46.08,-68.305 69.625,-100.831c23.545,-32.526 45.744,-62.161 66.598,-88.905c20.853,-26.744 39.016,-49.874 54.488,-69.389c15.473,-19.516 27.245,-32.888 35.317,-40.116c40.362,-37.586 91.824,-68.667 154.386,-93.242c62.561,-24.576 134.204,-37.586 214.928,-39.032l64.58,4.337l-0,290.568c-28.254,2.891 -63.907,18.432 -106.96,46.621c-43.053,28.19 -85.433,63.246 -127.141,105.168c-41.708,41.923 -79.379,86.737 -113.014,134.442c-33.635,47.705 -55.834,92.519 -66.598,134.442Z" style="fill:#c1ff32;fill-rule:nonzero;"/>
        </g>
    </g>
</svg>
