<?xml version="1.0" encoding="UTF-8" standalone="no"?>
<!DOCTYPE svg PUBLIC "-//W3C//DTD SVG 1.1//EN" "http://www.w3.org/Graphics/SVG/1.1/DTD/svg11.dtd">
<svg width="100%" height="100%" viewBox="0 0 1190 288" version="1.1" xmlns="http://www.w3.org/2000/svg" xmlns:xlink="http://www.w3.org/1999/xlink" xml:space="preserve" xmlns:serif="http://www.serif.com/" style="fill-rule:evenodd;clip-rule:evenodd;stroke-linejoin:round;stroke-miterlimit:2;">
    <g id="Light">
        <g id="Logo">
            <g id="Input">
                <rect x="240.467" y="73.682" width="33.799" height="154.822" style="fill:#121602;fill-opacity:0.4;fill-rule:nonzero;"/>
                <path d="M387.304,115.686c3.129,-0 6.322,0.843 9.576,2.529c3.255,1.686 6.134,3.885 8.638,6.597c2.503,2.713 4.569,5.865 6.196,9.457c1.627,3.592 2.441,7.294 2.441,11.106l0,83.129l-33.799,-0l0,-68.175c0,-1.026 -0.344,-2.089 -1.032,-3.189c-0.689,-1.099 -1.502,-2.052 -2.441,-2.859c-0.939,-0.806 -1.878,-1.502 -2.817,-2.089c-0.939,-0.586 -1.658,-0.953 -2.159,-1.099l-46.943,-0l0,77.411l-33.799,-0l0,-112.818l96.139,-0Z" style="fill:#121602;fill-opacity:0.4;fill-rule:nonzero;"/>
                <path d="M548.974,145.155c0,2.492 -0.125,5.315 -0.375,8.467c-0.25,3.152 -1.095,6.927 -2.535,11.325c-1.44,4.399 -3.693,9.494 -6.76,15.285c-3.067,5.791 -7.354,12.572 -12.862,20.342c-0.376,0.587 -1.846,2.346 -4.413,5.278c-2.566,2.932 -5.852,6.048 -9.858,9.347c-4.005,3.298 -8.543,6.304 -13.613,9.016c-5.07,2.713 -10.233,4.142 -15.491,4.289l-0,-31.449c-0,0 1.408,-1.319 4.225,-3.958c2.816,-2.639 5.977,-5.938 9.482,-9.896c3.505,-3.959 6.791,-8.284 9.858,-12.976c3.067,-4.691 4.913,-9.236 5.539,-13.634c0,-1.173 -0.313,-2.42 -0.938,-3.739c-0.626,-1.32 -1.252,-1.979 -1.878,-1.979l-34.738,-0c-2.879,-0 -5.226,0.769 -7.041,2.309c-1.815,1.539 -2.723,3.775 -2.723,6.707l0,110.619l-33.798,-0l-0,-137.669c-0,-1.905 0.375,-3.848 1.126,-5.827c0.751,-1.98 1.784,-3.812 3.098,-5.498c1.315,-1.686 2.942,-3.079 4.882,-4.179c1.941,-1.099 4.1,-1.649 6.478,-1.649l86.563,-0c2.754,-0 5.132,1.099 7.135,3.299c2.003,2.199 3.661,4.838 4.976,7.917c1.314,3.079 2.253,6.304 2.816,9.676c0.564,3.372 0.845,6.231 0.845,8.577Z" style="fill:#121602;fill-opacity:0.4;fill-rule:nonzero;"/>
                <path d="M591.786,228.504l65.532,-0c3.13,-0 6.322,-0.807 9.576,-2.419c3.255,-1.613 6.134,-3.812 8.638,-6.598c2.503,-2.786 4.569,-5.974 6.196,-9.566c1.628,-3.592 2.441,-7.294 2.441,-11.106l0,-83.129l-33.799,-0l0,68.174c0,1.173 -0.344,2.273 -1.032,3.299c-0.689,1.026 -1.502,1.943 -2.441,2.749c-0.939,0.806 -1.878,1.503 -2.817,2.089c-0.939,0.587 -1.658,0.953 -2.159,1.1l-34.738,-0c-0.5,-0.147 -1.22,-0.513 -2.159,-1.1c-0.939,-0.586 -1.878,-1.283 -2.817,-2.089c-0.938,-0.806 -1.752,-1.723 -2.441,-2.749c-0.688,-1.026 -1.032,-2.126 -1.032,-3.299l-0,-68.174l-33.799,-0l-0,83.129c-0,3.812 0.814,7.514 2.441,11.106c1.627,3.592 3.693,6.78 6.196,9.566c2.504,2.786 5.352,4.985 8.544,6.598c3.192,1.612 6.415,2.419 9.67,2.419Z" style="fill:#121602;fill-opacity:0.4;fill-rule:nonzero;"/>
                <path d="M701.069,73.682l-0,125.133c-0,3.812 0.813,7.514 2.441,11.106c1.627,3.592 3.692,6.78 6.196,9.566c2.504,2.786 5.351,4.985 8.544,6.598c3.192,1.612 6.415,2.419 9.67,2.419l43.75,-0c8.012,-11.143 14.208,-22.945 18.59,-35.407l-46.943,-0c-0.501,-0.147 -1.221,-0.513 -2.159,-1.1c-0.939,-0.586 -1.878,-1.283 -2.817,-2.089c-0.939,-0.806 -1.753,-1.723 -2.441,-2.749c-0.689,-1.026 -1.033,-2.126 -1.033,-3.299l0,-32.767l55.393,-0l-0,-35.407l-55.393,-0l0,-42.004l-33.798,-0Z" style="fill:#121602;fill-opacity:0.4;fill-rule:nonzero;"/>
                <path d="M807.159,228.504l-0,-112.818l33.799,-0l-0,112.818l-33.799,-0Zm-0,-154.822l33.799,-0l-0,29.249l-33.799,-0l-0,-29.249Z" style="fill:#121602;fill-opacity:0.4;fill-rule:nonzero;"/>
                <path d="M884.708,228.504l65.532,-0c3.13,-0 6.322,-0.807 9.576,-2.419c3.255,-1.613 6.134,-3.812 8.638,-6.598c2.503,-2.786 4.569,-5.974 6.196,-9.566c1.628,-3.592 2.441,-7.294 2.441,-11.106l0,-83.129l-33.798,-0l-0,68.174c-0,1.173 -0.345,2.273 -1.033,3.299c-0.689,1.026 -1.502,1.943 -2.441,2.749c-0.939,0.806 -1.878,1.503 -2.817,2.089c-0.939,0.587 -1.658,0.953 -2.159,1.1l-34.738,-0c-0.5,-0.147 -1.22,-0.513 -2.159,-1.1c-0.939,-0.586 -1.878,-1.283 -2.817,-2.089c-0.938,-0.806 -1.752,-1.723 -2.441,-2.749c-0.688,-1.026 -1.032,-2.126 -1.032,-3.299l-0,-68.174l-33.799,-0l-0,83.129c-0,3.812 0.814,7.514 2.441,11.106c1.627,3.592 3.693,6.78 6.196,9.566c2.504,2.786 5.352,4.985 8.544,6.598c3.192,1.612 6.415,2.419 9.67,2.419Z" style="fill:#121602;fill-opacity:0.4;fill-rule:nonzero;"/>
                <path d="M1100.46,115.686c-3.505,-0 -6.884,1.283 -10.139,3.848c-3.255,2.566 -6.197,5.388 -8.825,8.467c-2.629,-3.079 -5.571,-5.901 -8.826,-8.467c-3.254,-2.565 -6.572,-3.848 -9.951,-3.848l-41.873,-0c-3.255,-0 -6.478,0.843 -9.67,2.529c-3.193,1.686 -6.04,3.885 -8.544,6.597c-2.504,2.713 -4.569,5.865 -6.196,9.457c-1.628,3.592 -2.441,7.294 -2.441,11.106l-0,83.129l33.798,-0l0,-68.175c0,-1.026 0.344,-2.089 1.033,-3.189c0.688,-1.099 1.502,-2.052 2.441,-2.859c0.939,-0.806 1.878,-1.502 2.817,-2.089c0.938,-0.586 1.658,-0.953 2.159,-1.099l19.904,-0c0.5,0.146 1.22,0.513 2.159,1.099c0.939,0.587 1.878,1.283 2.817,2.089c0.938,0.807 1.752,1.76 2.441,2.859c0.688,1.1 1.032,2.163 1.032,3.189l0,68.175l33.987,-0l-0,-68.175c-0,-1.026 0.344,-2.089 1.032,-3.189c0.689,-1.099 1.503,-2.052 2.441,-2.859c0.939,-0.806 1.878,-1.502 2.817,-2.089c0.939,-0.586 1.659,-0.953 2.159,-1.099l19.904,-0c0.501,0.146 1.221,0.513 2.159,1.099c0.939,0.587 1.878,1.283 2.817,2.089c0.939,0.807 1.753,1.76 2.441,2.859c0.689,1.1 1.033,2.163 1.033,3.189l-0,68.175l33.798,-0l0,-83.129c0,-3.812 -0.813,-7.514 -2.441,-11.106c-1.627,-3.592 -3.692,-6.744 -6.196,-9.457c-2.504,-2.712 -5.383,-4.911 -8.637,-6.597c-3.255,-1.686 -6.447,-2.529 -9.577,-2.529l-41.873,-0Z" style="fill:#121602;fill-opacity:0.4;fill-rule:nonzero;"/>
                <rect x="236.595" y="68.574" width="33.799" height="154.822" style="fill:#3c3c3c;fill-rule:nonzero;"/>
                <path d="M383.432,110.578c3.129,0 6.321,0.843 9.576,2.529c3.255,1.686 6.134,3.885 8.638,6.598c2.503,2.712 4.569,5.864 6.196,9.456c1.627,3.592 2.441,7.294 2.441,11.106l0,83.129l-33.799,-0l0,-68.175c0,-1.026 -0.344,-2.089 -1.032,-3.188c-0.689,-1.1 -1.503,-2.053 -2.441,-2.859c-0.939,-0.807 -1.878,-1.503 -2.817,-2.09c-0.939,-0.586 -1.659,-0.953 -2.159,-1.099l-46.943,-0l0,77.411l-33.799,-0l0,-112.818l96.139,0Z" style="fill:#3c3c3c;fill-rule:nonzero;"/>
                <path d="M545.102,140.047c0,2.492 -0.125,5.315 -0.375,8.467c-0.251,3.152 -1.096,6.927 -2.535,11.326c-1.44,4.398 -3.693,9.493 -6.76,15.284c-3.067,5.791 -7.354,12.572 -12.862,20.342c-0.376,0.587 -1.847,2.346 -4.413,5.278c-2.566,2.933 -5.852,6.048 -9.858,9.347c-4.005,3.299 -8.543,6.304 -13.613,9.016c-5.07,2.713 -10.234,4.142 -15.491,4.289l-0,-31.448c-0,-0 1.408,-1.32 4.225,-3.959c2.816,-2.639 5.977,-5.938 9.482,-9.896c3.505,-3.959 6.791,-8.284 9.858,-12.975c3.067,-4.692 4.913,-9.237 5.539,-13.635c0,-1.173 -0.313,-2.419 -0.939,-3.739c-0.625,-1.319 -1.251,-1.979 -1.877,-1.979l-34.738,-0c-2.879,-0 -5.226,0.77 -7.041,2.309c-1.815,1.539 -2.723,3.775 -2.723,6.707l0,110.619l-33.799,0l0,-137.668c0,-1.906 0.376,-3.849 1.127,-5.828c0.751,-1.979 1.784,-3.812 3.098,-5.498c1.315,-1.686 2.942,-3.079 4.882,-4.179c1.941,-1.099 4.1,-1.649 6.478,-1.649l86.563,0c2.754,0 5.132,1.1 7.135,3.299c2.003,2.199 3.661,4.838 4.976,7.917c1.314,3.079 2.253,6.304 2.816,9.676c0.564,3.372 0.845,6.231 0.845,8.577Z" style="fill:#3c3c3c;fill-rule:nonzero;"/>
                <path d="M587.914,223.396l65.532,-0c3.129,-0 6.322,-0.807 9.576,-2.419c3.255,-1.613 6.134,-3.812 8.638,-6.598c2.503,-2.785 4.569,-5.974 6.196,-9.566c1.627,-3.592 2.441,-7.294 2.441,-11.106l0,-83.129l-33.799,0l0,68.175c0,1.172 -0.344,2.272 -1.032,3.298c-0.689,1.027 -1.503,1.943 -2.441,2.749c-0.939,0.807 -1.878,1.503 -2.817,2.089c-0.939,0.587 -1.659,0.953 -2.159,1.1l-34.738,0c-0.501,-0.147 -1.22,-0.513 -2.159,-1.1c-0.939,-0.586 -1.878,-1.282 -2.817,-2.089c-0.939,-0.806 -1.752,-1.722 -2.441,-2.749c-0.688,-1.026 -1.033,-2.126 -1.033,-3.298l0,-68.175l-33.798,0l-0,83.129c-0,3.812 0.813,7.514 2.441,11.106c1.627,3.592 3.693,6.781 6.196,9.566c2.504,2.786 5.352,4.985 8.544,6.598c3.192,1.612 6.415,2.419 9.67,2.419Z" style="fill:#3c3c3c;fill-rule:nonzero;"/>
                <path d="M697.196,68.574l0,125.133c0,3.812 0.814,7.514 2.441,11.106c1.628,3.592 3.693,6.781 6.197,9.566c2.503,2.786 5.351,4.985 8.543,6.598c3.193,1.612 6.416,2.419 9.671,2.419l43.75,-0c8.012,-11.143 14.208,-22.945 18.589,-35.407l-46.942,0c-0.501,-0.147 -1.221,-0.513 -2.16,-1.1c-0.938,-0.586 -1.877,-1.282 -2.816,-2.089c-0.939,-0.806 -1.753,-1.722 -2.441,-2.749c-0.689,-1.026 -1.033,-2.126 -1.033,-3.298l0,-32.768l55.392,-0l0,-35.407l-55.392,0l0,-42.004l-33.799,-0Z" style="fill:#3c3c3c;fill-rule:nonzero;"/>
                <path d="M803.287,223.396l-0,-112.818l33.798,0l0,112.818l-33.798,-0Zm-0,-154.822l33.798,-0l0,29.249l-33.798,-0l-0,-29.249Z" style="fill:#3c3c3c;fill-rule:nonzero;"/>
                <path d="M880.836,223.396l65.532,-0c3.129,-0 6.322,-0.807 9.576,-2.419c3.255,-1.613 6.134,-3.812 8.638,-6.598c2.503,-2.785 4.569,-5.974 6.196,-9.566c1.627,-3.592 2.441,-7.294 2.441,-11.106l0,-83.129l-33.799,0l0,68.175c0,1.172 -0.344,2.272 -1.032,3.298c-0.689,1.027 -1.502,1.943 -2.441,2.749c-0.939,0.807 -1.878,1.503 -2.817,2.089c-0.939,0.587 -1.659,0.953 -2.159,1.1l-34.738,0c-0.501,-0.147 -1.22,-0.513 -2.159,-1.1c-0.939,-0.586 -1.878,-1.282 -2.817,-2.089c-0.939,-0.806 -1.752,-1.722 -2.441,-2.749c-0.688,-1.026 -1.032,-2.126 -1.032,-3.298l-0,-68.175l-33.799,0l-0,83.129c-0,3.812 0.813,7.514 2.441,11.106c1.627,3.592 3.693,6.781 6.196,9.566c2.504,2.786 5.352,4.985 8.544,6.598c3.192,1.612 6.415,2.419 9.67,2.419Z" style="fill:#3c3c3c;fill-rule:nonzero;"/>
                <path d="M1096.58,110.578c-3.505,0 -6.885,1.283 -10.139,3.849c-3.255,2.565 -6.197,5.388 -8.825,8.466c-2.629,-3.078 -5.571,-5.901 -8.826,-8.466c-3.254,-2.566 -6.572,-3.849 -9.952,-3.849l-41.872,0c-3.255,0 -6.478,0.843 -9.671,2.529c-3.192,1.686 -6.039,3.885 -8.543,6.598c-2.504,2.712 -4.569,5.864 -6.197,9.456c-1.627,3.592 -2.441,7.294 -2.441,11.106l0,83.129l33.799,-0l0,-68.175c0,-1.026 0.344,-2.089 1.033,-3.188c0.688,-1.1 1.502,-2.053 2.441,-2.859c0.939,-0.807 1.878,-1.503 2.816,-2.09c0.939,-0.586 1.659,-0.953 2.16,-1.099l19.903,-0c0.501,0.146 1.221,0.513 2.16,1.099c0.939,0.587 1.878,1.283 2.816,2.09c0.939,0.806 1.753,1.759 2.441,2.859c0.689,1.099 1.033,2.162 1.033,3.188l0,68.175l33.987,-0l-0,-68.175c-0,-1.026 0.344,-2.089 1.032,-3.188c0.689,-1.1 1.503,-2.053 2.441,-2.859c0.939,-0.807 1.878,-1.503 2.817,-2.09c0.939,-0.586 1.659,-0.953 2.159,-1.099l19.904,-0c0.501,0.146 1.22,0.513 2.159,1.099c0.939,0.587 1.878,1.283 2.817,2.09c0.939,0.806 1.752,1.759 2.441,2.859c0.688,1.099 1.033,2.162 1.033,3.188l-0,68.175l33.798,-0l0,-83.129c0,-3.812 -0.813,-7.514 -2.441,-11.106c-1.627,-3.592 -3.692,-6.744 -6.196,-9.456c-2.504,-2.713 -5.383,-4.912 -8.638,-6.598c-3.254,-1.686 -6.446,-2.529 -9.576,-2.529l-41.873,0Z" style="fill:#3c3c3c;fill-rule:nonzero;"/>
            </g>
            <g id="X">
                <path d="M153.374,129.238l-2.704,11.894c-0.52,2.291 -0.259,5.315 0.783,9.073c1.043,3.758 2.661,7.832 4.853,12.222c2.193,4.39 4.714,8.855 7.562,13.394c2.849,4.539 5.768,8.77 8.756,12.692c2.989,3.923 5.985,7.245 8.988,9.966c3.003,2.721 5.633,4.431 7.889,5.129l-8.052,35.417l-7.992,-1.261c-9.799,-2.413 -18.171,-5.984 -25.116,-10.713c-6.944,-4.729 -12.356,-9.944 -16.234,-15.643c-0.784,-1.105 -1.858,-3.017 -3.223,-5.737c-1.365,-2.719 -2.958,-5.954 -4.779,-9.703c-1.821,-3.75 -3.716,-7.933 -5.684,-12.55c-1.969,-4.617 -3.886,-9.269 -5.753,-13.955c-3.709,3.419 -7.449,6.784 -11.22,10.096c-3.771,3.313 -7.247,6.275 -10.428,8.887c-3.181,2.613 -5.975,4.85 -8.382,6.712c-2.406,1.862 -4.202,3.122 -5.386,3.779c-5.961,3.463 -13.095,5.825 -21.402,7.087c-8.306,1.262 -17.4,0.863 -27.279,-1.198l-7.751,-2.318l8.051,-35.418c2.336,0.346 5.446,-0.059 9.331,-1.214c3.884,-1.155 8.022,-2.855 12.413,-5.1c4.391,-2.245 8.852,-4.798 13.383,-7.659c4.531,-2.862 8.734,-5.798 12.609,-8.809c3.875,-3.01 7.095,-5.984 9.66,-8.922c2.565,-2.938 4.108,-5.552 4.628,-7.843l2.704,-11.894c-0.15,-5.408 -1.614,-11.486 -4.392,-18.232c-2.778,-6.747 -6.128,-13.253 -10.05,-19.519c-3.922,-6.266 -8.116,-11.713 -12.583,-16.342c-4.466,-4.629 -8.381,-7.511 -11.745,-8.647l8.052,-35.417l7.992,1.261c9.799,2.413 18.171,5.984 25.116,10.713c6.944,4.729 12.356,9.944 16.234,15.644c0.783,1.104 1.889,3.07 3.316,5.896c1.427,2.826 3,6.149 4.719,9.968c1.719,3.819 3.521,8.027 5.408,12.626c1.886,4.598 3.743,9.329 5.569,14.191c3.75,-3.595 7.51,-7.048 11.281,-10.361c3.771,-3.312 7.298,-6.309 10.581,-8.991c3.283,-2.682 6.138,-4.998 8.564,-6.948c2.427,-1.95 4.233,-3.253 5.417,-3.911c5.961,-3.463 13.095,-5.825 21.402,-7.087c8.306,-1.262 17.399,-0.862 27.279,1.198l7.751,2.318l-8.051,35.418c-3.524,-0.431 -8.301,0.475 -14.33,2.718c-6.029,2.243 -12.166,5.342 -18.411,9.296c-6.246,3.954 -12.079,8.373 -17.501,13.256c-5.421,4.882 -9.369,9.73 -11.843,14.541Z" style="fill:#555800;fill-rule:nonzero;"/>
                <path d="M151.861,118.787l1.412,12.115c0.272,2.334 1.525,5.098 3.76,8.295c2.235,3.196 5.117,6.498 8.647,9.907c3.529,3.41 7.393,6.78 11.591,10.111c4.197,3.331 8.358,6.348 12.483,9.051c4.124,2.704 8.056,4.838 11.794,6.403c3.738,1.566 6.787,2.302 9.146,2.209l4.204,36.077l-7.955,1.473c-10.044,0.988 -19.127,0.41 -27.251,-1.737c-8.123,-2.146 -14.962,-5.26 -20.517,-9.343c-1.107,-0.781 -2.757,-2.226 -4.95,-4.335c-2.193,-2.11 -4.772,-4.629 -7.738,-7.558c-2.965,-2.929 -6.145,-6.242 -9.539,-9.94c-3.394,-3.698 -6.751,-7.446 -10.072,-11.243c-2.359,4.459 -4.764,8.878 -7.217,13.257c-2.453,4.38 -4.744,8.33 -6.873,11.853c-2.129,3.523 -4.018,6.563 -5.668,9.12c-1.649,2.557 -2.922,4.343 -3.82,5.357c-4.467,5.251 -10.407,9.854 -17.819,13.811c-7.412,3.956 -16.119,6.608 -26.121,7.955l-8.081,0.396l-4.204,-36.077c2.318,-0.452 5.116,-1.869 8.394,-4.252c3.277,-2.383 6.613,-5.364 10.005,-8.943c3.393,-3.579 6.749,-7.473 10.068,-11.68c3.319,-4.207 6.304,-8.375 8.956,-12.505c2.651,-4.129 4.696,-8.006 6.136,-11.63c1.441,-3.624 2.025,-6.603 1.753,-8.937l-1.412,-12.115c-1.943,-5.049 -5.348,-10.292 -10.214,-15.729c-4.866,-5.436 -10.192,-10.455 -15.977,-15.057c-5.785,-4.602 -11.554,-8.341 -17.307,-11.218c-5.753,-2.877 -10.405,-4.291 -13.955,-4.241l-4.204,-36.077l7.956,-1.473c10.043,-0.988 19.127,-0.409 27.25,1.737c8.123,2.146 14.962,5.26 20.517,9.343c1.107,0.781 2.804,2.266 5.091,4.455c2.287,2.19 4.877,4.799 7.769,7.827c2.893,3.029 5.994,6.397 9.305,10.104c3.31,3.708 6.636,7.55 9.978,11.527c2.338,-4.639 4.733,-9.148 7.186,-13.527c2.452,-4.379 4.78,-8.379 6.982,-12.002c2.202,-3.622 4.123,-6.756 5.762,-9.403c1.638,-2.647 2.906,-4.478 3.804,-5.492c4.468,-5.251 10.408,-9.854 17.82,-13.811c7.412,-3.956 16.119,-6.608 26.12,-7.955l8.081,-0.396l4.204,36.077c-3.466,0.767 -7.668,3.213 -12.605,7.336c-4.938,4.123 -9.693,9.088 -14.265,14.897c-4.571,5.808 -8.6,11.917 -12.086,18.327c-3.486,6.41 -5.594,12.295 -6.324,17.656Z" style="fill:#807300;fill-rule:nonzero;"/>
                <path d="M153.213,125.155l-1.128,12.145c-0.218,2.339 0.436,5.304 1.96,8.894c1.524,3.589 3.66,7.418 6.407,11.484c2.746,4.066 5.828,8.164 9.244,12.292c3.417,4.129 6.863,7.943 10.338,11.442c3.475,3.498 6.879,6.401 10.211,8.707c3.333,2.306 6.163,3.658 8.491,4.056l-3.361,36.165l-8.088,-0.208c-10.031,-1.113 -18.797,-3.561 -26.3,-7.344c-7.502,-3.782 -13.547,-8.246 -18.136,-13.391c-0.921,-0.993 -2.236,-2.748 -3.945,-5.266c-1.708,-2.518 -3.709,-5.517 -6.004,-8.997c-2.294,-3.48 -4.719,-7.38 -7.273,-11.701c-2.554,-4.321 -5.062,-8.682 -7.524,-13.085c-3.232,3.874 -6.501,7.698 -9.807,11.474c-3.307,3.776 -6.367,7.167 -9.18,10.172c-2.812,3.005 -5.29,5.588 -7.434,7.748c-2.143,2.16 -3.758,3.643 -4.847,4.45c-5.458,4.211 -12.223,7.484 -20.294,9.819c-8.07,2.335 -17.138,3.126 -27.202,2.372l-7.988,-1.287l3.362,-36.165c2.361,0.038 5.391,-0.769 9.092,-2.422c3.7,-1.652 7.581,-3.877 11.641,-6.676c4.06,-2.799 8.15,-5.912 12.269,-9.34c4.119,-3.429 7.903,-6.888 11.352,-10.379c3.449,-3.49 6.253,-6.859 8.413,-10.106c2.16,-3.248 3.348,-6.041 3.566,-8.38l1.128,-12.145c-0.854,-5.342 -3.099,-11.177 -6.734,-17.504c-3.634,-6.326 -7.804,-12.34 -12.511,-18.04c-4.706,-5.7 -9.575,-10.554 -14.607,-14.56c-5.033,-4.007 -9.291,-6.353 -12.774,-7.04l3.361,-36.165l8.088,0.207c10.031,1.114 18.797,3.562 26.3,7.344c7.502,3.782 13.547,8.246 18.136,13.391c0.921,0.993 2.274,2.798 4.058,5.413c1.783,2.616 3.776,5.705 5.979,9.267c2.202,3.562 4.539,7.5 7.009,11.812c2.471,4.313 4.929,8.761 7.374,13.344c3.248,-4.054 6.525,-7.968 9.832,-11.744c3.307,-3.776 6.413,-7.208 9.317,-10.296c2.905,-3.087 5.434,-5.756 7.585,-8.006c2.151,-2.25 3.771,-3.778 4.86,-4.584c5.458,-4.211 12.223,-7.485 20.294,-9.82c8.071,-2.335 17.138,-3.125 27.202,-2.372l7.988,1.287l-3.362,36.165c-3.55,0.033 -8.167,1.555 -13.851,4.566c-5.685,3.01 -11.365,6.883 -17.041,11.619c-5.676,4.735 -10.883,9.877 -15.622,15.426c-4.738,5.548 -8.019,10.869 -9.844,15.962Z" style="fill:#75a100;fill-rule:nonzero;"/>
                <path d="M151.907,118.819l1.399,12.117c0.269,2.334 1.519,5.1 3.751,8.298c2.231,3.199 5.109,6.505 8.635,9.918c3.526,3.413 7.386,6.788 11.58,10.123c4.194,3.336 8.352,6.358 12.473,9.066c4.122,2.707 8.051,4.846 11.787,6.416c3.736,1.57 6.784,2.309 9.144,2.219l4.164,36.081l-7.957,1.464c-10.045,0.978 -19.128,0.389 -27.249,-1.767c-8.12,-2.155 -14.956,-5.277 -20.507,-9.366c-1.106,-0.781 -2.754,-2.228 -4.945,-4.34c-2.19,-2.112 -4.767,-4.634 -7.729,-7.567c-2.962,-2.932 -6.139,-6.249 -9.528,-9.951c-3.39,-3.701 -6.743,-7.452 -10.06,-11.253c-2.364,4.456 -4.774,8.872 -7.232,13.249c-2.457,4.376 -4.753,8.325 -6.886,11.845c-2.133,3.52 -4.025,6.558 -5.677,9.114c-1.652,2.555 -2.928,4.339 -3.827,5.352c-4.473,5.246 -10.418,9.843 -17.834,13.791c-7.417,3.948 -16.127,6.591 -26.13,7.927l-8.081,0.387l-4.164,-36.082c2.318,-0.449 5.117,-1.864 8.398,-4.243c3.28,-2.38 6.619,-5.357 10.015,-8.932c3.397,-3.575 6.757,-7.465 10.081,-11.668c3.324,-4.204 6.314,-8.369 8.97,-12.495c2.655,-4.127 4.705,-8.001 6.149,-11.624c1.445,-3.623 2.032,-6.601 1.763,-8.934l-1.399,-12.117c-1.937,-5.052 -5.336,-10.299 -10.196,-15.741c-4.86,-5.441 -10.18,-10.466 -15.96,-15.074c-5.78,-4.609 -11.545,-8.354 -17.295,-11.238c-5.75,-2.883 -10.4,-4.302 -13.95,-4.256l-4.164,-36.082l7.957,-1.464c10.045,-0.977 19.128,-0.388 27.249,1.767c8.12,2.155 14.956,5.277 20.507,9.366c1.106,0.782 2.801,2.269 5.085,4.461c2.285,2.192 4.872,4.804 7.761,7.836c2.889,3.031 5.987,6.403 9.293,10.114c3.306,3.711 6.628,7.557 9.965,11.538c2.343,-4.636 4.744,-9.143 7.201,-13.519c2.458,-4.376 4.79,-8.374 6.996,-11.994c2.206,-3.62 4.13,-6.752 5.772,-9.397c1.642,-2.646 2.912,-4.475 3.811,-5.488c4.473,-5.246 10.418,-9.843 17.834,-13.791c7.417,-3.948 16.127,-6.59 26.13,-7.926l8.081,-0.387l4.164,36.081c-3.467,0.764 -7.671,3.205 -12.614,7.322c-4.942,4.118 -9.702,9.078 -14.28,14.881c-4.579,5.804 -8.614,11.909 -12.107,18.314c-3.493,6.406 -5.608,12.289 -6.344,17.649Z" style="fill:#8ca700;fill-rule:nonzero;"/>
                <path d="M152.781,122.293l0,12.198c0,2.349 0.925,5.24 2.775,8.673c1.85,3.434 4.331,7.048 7.442,10.842c3.111,3.795 6.559,7.59 10.343,11.385c3.784,3.794 7.568,7.273 11.352,10.435c3.784,3.162 7.442,5.737 10.973,7.725c3.532,1.988 6.475,3.072 8.829,3.253l0,36.321l-8.072,0.542c-10.091,-0.181 -19.046,-1.807 -26.866,-4.879c-7.82,-3.072 -14.253,-6.957 -19.298,-11.655c-1.009,-0.904 -2.481,-2.53 -4.415,-4.879c-1.934,-2.349 -4.204,-5.15 -6.811,-8.403c-2.607,-3.253 -5.382,-6.912 -8.325,-10.977c-2.943,-4.066 -5.844,-8.177 -8.703,-12.333c-2.859,4.156 -5.76,8.267 -8.703,12.333c-2.943,4.065 -5.676,7.724 -8.198,10.977c-2.523,3.253 -4.751,6.054 -6.685,8.403c-1.934,2.349 -3.406,3.975 -4.415,4.879c-5.045,4.698 -11.478,8.583 -19.298,11.655c-7.82,3.072 -16.776,4.698 -26.866,4.879l-8.073,-0.542l0,-36.321c2.355,-0.181 5.298,-1.265 8.83,-3.253c3.531,-1.988 7.189,-4.563 10.973,-7.725c3.784,-3.162 7.568,-6.641 11.352,-10.435c3.784,-3.795 7.231,-7.59 10.343,-11.385c3.111,-3.794 5.592,-7.408 7.442,-10.842c1.849,-3.433 2.774,-6.324 2.774,-8.673l0,-12.198c-1.345,-5.24 -4.12,-10.842 -8.324,-16.805c-4.205,-5.963 -8.914,-11.565 -14.127,-16.805c-5.213,-5.24 -10.511,-9.623 -15.893,-13.146c-5.381,-3.524 -9.838,-5.466 -13.37,-5.828l0,-36.321l8.073,-0.542c10.09,0.181 19.046,1.807 26.866,4.879c7.82,3.072 14.253,6.957 19.298,11.655c1.009,0.904 2.523,2.575 4.541,5.015c2.018,2.439 4.288,5.33 6.811,8.673c2.523,3.343 5.213,7.048 8.072,11.114c2.859,4.065 5.718,8.267 8.577,12.603c2.859,-4.336 5.76,-8.538 8.703,-12.603c2.943,-4.066 5.718,-7.771 8.325,-11.114c2.607,-3.343 4.877,-6.234 6.811,-8.673c1.934,-2.44 3.406,-4.111 4.415,-5.015c5.045,-4.698 11.478,-8.583 19.298,-11.655c7.82,-3.072 16.775,-4.698 26.866,-4.879l8.072,0.542l0,36.321c-3.531,0.362 -7.988,2.304 -13.37,5.828c-5.381,3.523 -10.679,7.906 -15.892,13.146c-5.214,5.24 -9.922,10.842 -14.127,16.805c-4.204,5.963 -6.979,11.565 -8.325,16.805Z" style="fill:#c1ff32;fill-rule:nonzero;"/>
            </g>
        </g>
    </g>
</svg>
